<?xml version="1.0" standalone="no"?>
<!DOCTYPE svg PUBLIC "-//W3C//DTD SVG 20010904//EN"
 "http://www.w3.org/TR/2001/REC-SVG-20010904/DTD/svg10.dtd">
<svg version="1.0" xmlns="http://www.w3.org/2000/svg"
 width="1024.000000pt" height="1024.000000pt" viewBox="0 0 1024.000000 1024.000000"
 preserveAspectRatio="xMidYMid meet">

<g transform="translate(0.000000,1024.000000) scale(0.100000,-0.100000)"
fill="#000000" stroke="none">
<path d="M1768 9230 c-69 -12 -150 -52 -202 -100 -79 -73 -142 -234 -122 -313
8 -32 51 -74 82 -80 64 -12 134 36 134 92 0 119 109 209 216 180 56 -16 94
-46 115 -93 17 -37 19 -71 19 -383 l0 -343 29 -32 c26 -29 35 -33 81 -33 46 0
55 4 81 33 l30 34 -3 376 -3 377 -32 66 c-57 116 -168 198 -294 219 -35 5 -68
9 -74 9 -5 -1 -31 -5 -57 -9z"/>
<path d="M2787 9230 c-161 -27 -291 -162 -318 -330 -8 -53 -7 -67 8 -98 25
-50 76 -75 125 -61 41 11 78 50 78 83 0 80 63 165 137 185 60 16 136 -11 177
-62 l31 -39 5 -356 c5 -385 6 -389 60 -417 49 -25 88 -19 126 19 l35 35 -3
378 -3 378 -27 58 c-35 74 -114 157 -181 190 -46 22 -159 49 -192 46 -5 -1
-32 -5 -58 -9z"/>
<path d="M3812 9230 c-171 -26 -309 -177 -320 -350 -4 -66 -1 -78 17 -102 29
-37 84 -51 125 -34 47 20 66 47 76 112 5 32 18 70 28 83 77 103 216 99 290 -9
22 -33 22 -37 22 -364 0 -201 4 -346 11 -369 23 -84 135 -103 191 -33 16 19
18 55 18 387 0 408 -2 423 -66 516 -85 124 -236 186 -392 163z"/>
<path d="M4831 9229 c-166 -28 -308 -183 -318 -348 -5 -82 17 -124 72 -140 77
-21 145 30 145 109 0 41 33 104 67 128 44 31 102 43 147 31 51 -14 110 -70
124 -117 8 -27 12 -147 12 -372 l0 -332 34 -34 c39 -39 77 -44 127 -18 56 28
59 50 59 408 0 202 -4 345 -11 378 -45 210 -243 343 -458 307z"/>
<path d="M5851 9229 c-71 -12 -162 -61 -212 -116 -79 -86 -129 -242 -99 -312
43 -105 210 -74 210 40 0 43 35 114 68 138 92 65 219 34 263 -63 17 -37 19
-71 19 -383 l0 -343 29 -32 c26 -29 35 -33 80 -33 42 0 55 5 78 28 l28 27 3
356 c2 306 0 364 -14 413 -43 150 -162 256 -315 281 -35 5 -68 9 -74 9 -5 -1
-34 -5 -64 -10z"/>
<path d="M6877 9230 c-111 -19 -229 -106 -280 -207 -29 -57 -51 -162 -42 -203
12 -56 80 -95 138 -79 49 13 66 38 82 116 12 57 21 74 54 105 54 51 105 63
172 41 37 -13 62 -29 83 -56 l31 -39 5 -356 c5 -385 6 -389 60 -417 49 -25 88
-19 126 19 l35 35 -3 378 -3 378 -27 57 c-56 120 -170 207 -299 228 -35 5 -68
9 -74 9 -5 -1 -32 -5 -58 -9z"/>
<path d="M535 8544 c-16 -8 -38 -23 -49 -32 -49 -45 -46 157 -46 -3310 l0
-3239 23 -33 c12 -18 35 -43 50 -54 l28 -21 3841 -3 3841 -2 43 25 c28 16 49
39 63 68 l21 43 0 3217 c0 2248 -3 3224 -11 3244 -14 38 -57 83 -96 99 -26 11
-116 14 -438 14 l-405 0 0 -179 c0 -102 -5 -192 -11 -208 -17 -45 -67 -90
-115 -103 -79 -22 -160 17 -195 94 -16 35 -19 67 -19 219 l0 177 -340 0 -340
0 0 -177 c0 -152 -3 -184 -19 -219 -35 -76 -117 -117 -191 -95 -54 16 -107 65
-120 109 -5 20 -10 115 -10 210 l0 172 -340 0 -340 0 0 -172 c-1 -228 -15
-269 -109 -310 -59 -27 -119 -18 -168 25 -58 51 -63 74 -63 277 l0 180 -344 0
-345 0 -3 -197 c-3 -189 -4 -199 -26 -229 -55 -73 -155 -91 -229 -42 -68 45
-77 76 -81 286 l-4 182 -339 0 -339 0 0 -180 c0 -203 -5 -226 -63 -277 -49
-43 -109 -52 -168 -25 -94 41 -108 82 -109 310 l0 172 -340 0 -340 0 0 -178
c0 -164 -2 -181 -22 -222 -59 -116 -199 -129 -282 -27 l-31 39 -3 194 -4 194
-691 0 c-608 0 -696 -2 -722 -16z m7475 -4169 l0 -2185 -3620 0 -3620 0 0
2185 0 2185 3620 0 3620 0 0 -2185z"/>
<path d="M5312 6088 c-17 -17 -17 -949 0 -966 9 -9 123 -12 449 -12 384 0 439
2 453 16 14 14 16 71 16 479 0 408 -2 465 -16 479 -14 14 -69 16 -453 16 -326
0 -440 -3 -449 -12z"/>
<path d="M6682 6088 c-17 -17 -17 -949 0 -966 9 -9 123 -12 449 -12 384 0 439
2 453 16 14 14 16 71 16 479 0 408 -2 465 -16 479 -14 14 -69 16 -453 16 -326
0 -440 -3 -449 -12z"/>
<path d="M1196 4768 c-14 -20 -16 -81 -16 -473 0 -392 2 -453 16 -473 l15 -22
438 0 c412 0 439 1 454 18 15 17 17 65 17 479 0 433 -1 461 -18 476 -17 15
-63 17 -455 17 l-436 0 -15 -22z"/>
<path d="M2572 4778 c-17 -17 -17 -949 0 -966 9 -9 123 -12 449 -12 384 0 439
2 453 16 14 14 16 71 16 478 0 436 -1 464 -18 479 -17 15 -63 17 -453 17 -325
0 -438 -3 -447 -12z"/>
<path d="M3942 4778 c-17 -17 -17 -949 0 -966 9 -9 123 -12 449 -12 384 0 439
2 453 16 14 14 16 71 16 478 0 436 -1 464 -18 479 -17 15 -63 17 -453 17 -325
0 -438 -3 -447 -12z"/>
<path d="M5318 4779 c-17 -9 -18 -43 -18 -482 0 -355 3 -476 12 -485 9 -9 123
-12 449 -12 384 0 439 2 453 16 14 14 16 71 16 478 0 436 -1 464 -18 479 -17
15 -62 17 -448 17 -273 0 -435 -4 -446 -11z"/>
<path d="M6688 4779 c-17 -9 -18 -43 -18 -482 0 -355 3 -476 12 -485 9 -9 123
-12 449 -12 384 0 439 2 453 16 14 14 16 71 16 478 0 436 -1 464 -18 479 -17
15 -62 17 -448 17 -273 0 -435 -4 -446 -11z"/>
<path d="M1200 3460 c-19 -19 -20 -33 -20 -473 0 -393 2 -455 16 -475 l15 -22
439 0 c385 0 440 2 454 16 14 14 16 70 16 472 0 398 -2 460 -16 480 l-15 22
-435 0 c-421 0 -435 -1 -454 -20z"/>
<path d="M2578 3469 c-17 -9 -18 -43 -18 -482 0 -355 3 -476 12 -485 9 -9 123
-12 449 -12 384 0 439 2 453 16 14 14 16 71 16 478 0 436 -1 464 -18 479 -17
15 -62 17 -448 17 -273 0 -435 -4 -446 -11z"/>
<path d="M3948 3469 c-17 -9 -18 -43 -18 -482 0 -355 3 -476 12 -485 9 -9 123
-12 449 -12 384 0 439 2 453 16 14 14 16 71 16 478 0 436 -1 464 -18 479 -17
15 -62 17 -448 17 -273 0 -435 -4 -446 -11z"/>
<path d="M5318 3469 c-17 -9 -18 -43 -18 -482 0 -355 3 -476 12 -485 9 -9 123
-12 449 -12 384 0 439 2 453 16 14 14 16 71 16 478 0 436 -1 464 -18 479 -17
15 -62 17 -448 17 -273 0 -435 -4 -446 -11z"/>
<path d="M6688 3469 c-17 -9 -18 -43 -18 -482 0 -355 3 -476 12 -485 9 -9 123
-12 449 -12 384 0 439 2 453 16 14 14 16 71 16 478 0 436 -1 464 -18 479 -17
15 -62 17 -448 17 -273 0 -435 -4 -446 -11z"/>
</g>
</svg>
